<?xml version="1.0" encoding="UTF-8" standalone="no"?>
<svg
   xmlns:dc="http://purl.org/dc/elements/1.1/"
   xmlns:cc="http://creativecommons.org/ns#"
   xmlns:rdf="http://www.w3.org/1999/02/22-rdf-syntax-ns#"
   xmlns:svg="http://www.w3.org/2000/svg"
   xmlns="http://www.w3.org/2000/svg"
   xmlns:sodipodi="http://sodipodi.sourceforge.net/DTD/sodipodi-0.dtd"
   xmlns:inkscape="http://www.inkscape.org/namespaces/inkscape"
   inkscape:version="1.0 (4035a4fb49, 2020-05-01)"
   sodipodi:docname="logomarovik2.svg"
   viewBox="0 0 1706.6667 960"
   height="960"
   width="1706.6667"
   id="svg10"
   version="1.1">
  <metadata
     id="metadata16">
    <rdf:RDF>
      <cc:Work
         rdf:about="">
        <dc:format>image/svg+xml</dc:format>
        <dc:type
           rdf:resource="http://purl.org/dc/dcmitype/StillImage" />
        <dc:title></dc:title>
      </cc:Work>
    </rdf:RDF>
  </metadata>
  <defs
     id="defs14" />
  <sodipodi:namedview
     inkscape:current-layer="g18"
     inkscape:window-maximized="1"
     inkscape:window-y="-8"
     inkscape:window-x="-8"
     inkscape:cy="492.76821"
     inkscape:cx="853.33337"
     inkscape:zoom="0.38006989"
     showgrid="false"
     id="namedview12"
     inkscape:window-height="706"
     inkscape:window-width="1366"
     inkscape:pageshadow="2"
     inkscape:pageopacity="0"
     guidetolerance="10"
     gridtolerance="10"
     objecttolerance="10"
     borderopacity="1"
     bordercolor="#666666"
     pagecolor="#ffffff" />
  <g
     id="g18"
     inkscape:label="Image"
     inkscape:groupmode="layer">
    <g
       transform="matrix(1.3941106,0,0,1.6319755,-345.41029,-316.05974)"
       id="g40">
      <path
         id="path54"
         d="m 822.66668,768.54425 c -99.55511,-4.65101 -164.60021,-13.38965 -242,-32.51205 -148.41467,-36.66735 -257.62473,-100.91296 -300.3675,-176.69887 -7.15175,-12.68054 -14.30001,-31.11976 -17.05733,-44 -2.7373,-12.78676 -3.13024,-40.18869 -0.75076,-52.3548 9.62266,-49.20008 44.73702,-94.93304 103.59565,-134.92308 160.48107,-109.03488 459.6468,-151.28678 721.69826,-101.92721 163.4538,30.78789 290.4766,93.86544 346.2168,171.92579 14.1014,19.74814 24.6485,43.49148 28.8405,64.9245 2.3795,12.16611 1.9865,39.56804 -0.7508,52.3548 -10.2248,47.76322 -47.3524,94.45719 -106.4095,133.8274 -96.2077,64.13643 -246.7368,106.81816 -414.34865,117.48636 -22.89429,1.45719 -101.26523,2.71012 -118.66667,1.89716 z M 468.09134,564.52117 c 10.57819,-3.13386 17.40775,-7.59986 26.5227,-17.34377 11.52853,-12.32403 18.15674,-26.89576 48.44837,-106.51073 C 548.76236,425.68557 550.66609,422 552.70437,422 c 1.92024,0 2.97619,1.62617 4.32899,6.66667 3.05384,11.37853 4.45789,13.98882 8.00306,14.87861 5.25219,1.31821 10.64156,-2.47939 22.10627,-15.57709 10.4642,-11.95468 14.19066,-14.3817 14.19066,-9.24226 0,1.49927 -6.27875,18.44927 -13.95278,37.66667 -7.67404,19.2174 -14.33172,37.37193 -14.79487,40.34341 -1.2017,7.70996 1.83059,14.20863 7.99463,17.13366 4.10871,1.9497 7.95629,2.25868 23.61604,1.89642 18.6172,-0.43066 18.7232,-0.45085 21.92232,-4.17377 2.02844,-2.36059 3.21466,-5.40769 3.21466,-8.25773 0,-6.79038 -3.63906,-8.66792 -16.80008,-8.66792 -7.90182,0 -11.31454,-0.53154 -12.48755,-1.94494 -1.30716,-1.57501 2.23799,-12.03376 18.63975,-54.99025 11.13964,-29.17493 20.57637,-55.03252 20.9705,-57.46132 1.26112,-7.7714 -4.14141,-13.60349 -12.60156,-13.60349 -6.2376,0 -14.08208,6.12194 -31.55061,24.62256 -10.09512,10.69154 -18.00716,18.01229 -19.21306,17.77717 -1.42301,-0.27745 -3.40805,-5.66488 -6.48897,-17.61117 -2.44135,-9.46628 -5.35307,-18.60676 -6.47048,-20.31216 -4.16375,-6.35468 -13.53804,-5.7274 -17.75448,1.18802 -1.45391,2.38456 -12.96729,31.33558 -25.58531,64.33558 -27.80553,72.7201 -33.44712,85.00229 -43.79914,95.35432 -6.07775,6.07774 -8.92044,7.8877 -14.48487,9.22258 -29.38453,7.04924 -42.53811,-29.29173 -21.14865,-58.43 8.94906,-12.19106 23.97377,-19.69118 45.79316,-22.85928 13.63122,-1.97918 17.64801,-4.66918 17.64801,-11.81865 0,-3.65971 -0.92625,-5.87257 -3.44765,-8.23656 -3.1775,-2.97912 -4.45738,-3.22413 -16.33334,-3.12672 -11.00669,0.0903 -14.49418,0.71021 -23.91654,4.25145 -22.01802,8.27512 -37.32738,21.51714 -46.91989,40.58395 -6.64536,13.20883 -8.5288,22.52577 -7.75986,38.38631 1.10773,22.84914 11.31117,37.77548 30.38447,44.44861 7.82946,2.73928 22.97772,2.77633 32.08414,0.0785 z m 790.00826,-22.01178 c 3.8526,-3.85586 4.9975,-11.94322 2.1014,-14.84507 -1.1525,-1.15483 -9.0907,-1.86841 -25.931,-2.33099 -16.1841,-0.44456 -25.268,-1.23678 -27.2656,-2.37792 -4.2787,-2.44416 -6.6081,-7.8245 -18.3699,-42.42938 l -10.471,-30.80731 2.5849,-3.37939 c 1.4217,-1.85865 14.1363,-16.13034 28.2547,-31.71486 28.4056,-31.35556 31.0563,-35.65696 26.0902,-42.33824 -3.2122,-4.32163 -8.1326,-5.19622 -13.5303,-2.40496 -2.1711,1.12272 -16.9711,16.45872 -32.8889,34.08001 -33.5771,37.17045 -36.9098,39.37737 -30.2608,20.03872 4.6633,-13.56321 4.93,-30.08115 0.6167,-38.19007 -6.9933,-13.14728 -20.4492,-19.86685 -37.7749,-18.86388 -17.9178,1.03724 -34.089,11.64968 -44.2724,29.05395 -12.6177,21.56469 -8.7906,50.46103 8.2945,62.62669 11.1448,7.93582 26.7228,3.71482 26.7228,-7.24078 0,-5.12042 -0.942,-6.26767 -8.6272,-10.50658 C 1095.5076,436.54117 1092,430.53271 1092,421.39795 c 0,-25.21014 29.3663,-43.08699 43.3939,-26.41618 5.9827,7.11 4.6265,12.89567 -15.2435,65.03054 -9.616,25.23058 -17.4837,47.54942 -17.4837,49.59741 0,9.22511 10.3024,11.92765 18.0068,4.72361 3.8441,-3.59436 6.6536,-9.56302 16.4753,-35 8.1509,-21.11021 12.5255,-30.80252 14.0379,-31.10261 2.7717,-0.54999 2.951,-0.11493 19.4048,47.08531 13.8513,39.73476 16.5957,45.84888 21.6963,48.33678 5.6939,2.77731 7.0456,2.87915 34.6848,2.61316 L 1254.6119,546 Z M 947.7943,515.22795 c 1.94648,-1.15796 11.33905,-12.65559 20.87239,-25.55027 31.62181,-42.77141 32.83631,-45.03496 27.9244,-52.04767 -2.54851,-3.6385 -9.32752,-3.94234 -13.39451,-0.60036 -1.54189,1.26703 -8.9418,11.15368 -16.44425,21.97035 -9.53632,13.74903 -14.40982,19.66667 -16.19655,19.66667 -3.05453,0 -3.085,-0.62354 -1.02371,-20.95546 C 951.38379,439.44647 950.45143,436 943.65862,436 c -5.72692,0 -9.78928,2.95044 -11.47956,8.33747 -2.0251,6.45412 -5.87222,53.94872 -4.89679,60.45333 1.61823,10.79108 11.48114,15.80963 20.51203,10.43715 z m -256.46095,-1.89462 c 5.02541,-3.3282 6.73838,-3.3282 10.9695,0 2.8143,2.21374 5.40904,2.66667 15.27652,2.66667 16.57607,0 21.08731,-2.58047 21.08731,-12.06213 0,-5.02519 -3.1284,-6.60454 -13.08241,-6.60454 -12.38923,0 -12.40606,-0.19404 -2.3158,-26.69773 4.80234,-12.61416 8.73154,-24.47025 8.73154,-26.34689 0,-8.2386 -9.80838,-11.08259 -17.09017,-4.95538 -2.1788,1.83334 -4.36487,3.33334 -4.85793,3.33334 -0.49307,0 -3.05975,-1.65 -5.70374,-3.66667 -4.19782,-3.20184 -6.00361,-3.66667 -14.24437,-3.66667 -11.54187,0 -17.57359,2.66118 -26.35665,11.6285 -16.32406,16.66648 -21.48819,44.21686 -11.20174,59.76073 4.69002,7.08711 10.08695,9.21285 23.4546,9.23829 9.10172,0.0173 12.12096,-0.50005 15.33334,-2.62752 z m -18,-17.65148 c -11.74711,-6.18816 -4.13368,-33.52773 11.43554,-41.06466 9.43283,-4.56636 18.34223,-0.75399 18.34223,7.8487 0,6.24515 -9.61373,29.36515 -13.18307,31.70387 -4.3769,2.86785 -12.59885,3.61703 -16.5947,1.51209 z m 146.57131,18.36747 c 4.2084,-2.17625 5.42869,-4.44916 5.42869,-10.11145 0,-5.26728 -3.13601,-6.60072 -15.57901,-6.62419 -11.50118,-0.0217 -16.04766,-1.64296 -18.91047,-6.74343 -3.68445,-6.5643 0.86351,-17.25492 12.87593,-30.26673 3.5582,-3.85423 6.303,-5.63685 8.67934,-5.63685 7.97206,0 12.45398,-4.7592 11.90441,-12.64091 C 823.95024,436.95865 820.40858,436 802.04186,436 c -19.42074,0 -22.511,-1.03012 -24.04522,-8.01537 -1.74681,-7.95315 -8.79316,-10.59606 -13.83163,-5.1879 -3.28412,3.52508 -17.49833,41.278 -17.49833,46.47552 0,7.87899 8.39601,10.82123 13.76756,4.8246 1.59451,-1.78005 4.127,-6.42541 5.62777,-10.32302 2.97871,-7.73594 6.72769,-10.20199 13.0841,-8.60663 4.55019,1.14203 4.44929,3.81548 -0.374,9.91099 -7.57453,9.57244 -10.10543,16.148 -10.10543,26.25514 0,10.80775 2.76082,16.82683 9.93594,21.66214 4.03024,2.71597 6.0465,3.00453 20.99412,3.00453 11.90481,0 17.59213,-0.54629 20.30792,-1.95068 z m 66.63526,0.65371 c 7.34602,-2.10682 13.24886,-6.86356 18.87059,-15.20666 6.51733,-9.67224 9.49147,-19.52725 9.49147,-31.4507 0,-11.34335 -3.12679,-18.89771 -10.61278,-25.64059 -6.72857,-6.06065 -14.25402,-8.22655 -25.75529,-7.41259 -25.63839,1.81447 -46.19189,29.95067 -41.28181,56.5117 2.20701,11.93884 7.7176,19.25604 16.99298,22.56406 5.94506,2.12027 25.75738,2.5097 32.29484,0.63478 z M 865.3519,495.06981 c -5.5808,-2.88536 -7.98256,-7.22597 -7.96962,-14.40314 0.0195,-10.79207 8.78442,-23.21139 18.41852,-26.09784 4.00807,-1.20086 5.95112,-1.09639 9.84143,0.52908 6.72331,2.80918 9.46688,8.54988 8.75955,18.32862 -1.2488,17.26462 -16.10734,28.33479 -29.04988,21.64328 z m 178.5124,17.72354 c 1.9128,-1.73368 2.8024,-4.15252 2.8024,-7.61975 0,-6.38192 -2.4334,-7.84027 -13.0824,-7.84027 -12.407,0 -12.4203,-0.15408 -2.3228,-27.09185 4.8062,-12.82172 8.7385,-24.4378 8.7385,-25.81351 0,-4.70266 -3.8313,-8.42797 -8.6679,-8.42797 -8.0582,0 -10.4702,3.689 -21.7943,33.33333 -12.49286,32.70391 -12.83099,33.9351 -10.71981,39.03196 2.60481,6.2885 7.59181,7.68702 26.04631,7.30411 13.7618,-0.28552 16.6191,-0.71804 19,-2.87605 z m 2.9049,-90.02412 c 2.8855,-2.88547 3.8975,-5.16239 3.8975,-8.76923 0,-3.60684 -1.012,-5.88376 -3.8975,-8.76923 -8.1222,-8.12226 -20.1025,-2.89616 -20.1025,8.76923 0,11.66539 11.9803,16.89149 20.1025,8.76923 z"
         style="fill:#e8f7fe;stroke-width:1.33333" />
      <path
         id="path52"
         d="m 812.00002,767.16988 c -216.36257,-9.24324 -403.90489,-70.577 -494.66668,-161.77559 -27.39515,-27.52698 -43.42765,-54.08277 -52.33521,-86.68656 -3.9523,-14.46633 -3.9523,-48.28246 0,-62.7488 11.22864,-41.09944 36.77549,-76.97569 78.34328,-110.01989 92.50387,-73.53571 243.12516,-121.38045 428.65861,-136.16311 40.31444,-3.2121 141.01889,-3.2121 181.33333,0 185.53345,14.78266 336.15475,62.6274 428.65865,136.16311 41.5678,33.0442 67.1146,68.92045 78.3432,110.01989 3.9523,14.46634 3.9523,48.28247 0,62.7488 -8.9005,32.57834 -24.8154,58.94786 -52.3352,86.71492 -84.2277,84.98467 -251.4395,143.7352 -453.33331,159.28051 -25.93335,1.99681 -116.86455,3.56901 -142.66667,2.46672 z M 467.30996,565.95007 c 13.28906,-3.46136 24.55637,-11.59183 33.61016,-24.25303 7.67382,-10.7314 15.30634,-27.98105 33.789,-76.36371 C 542.97325,443.7 550.5662,425.1 551.5823,424 c 2.35842,-2.55312 3.7728,-0.56835 4.98151,6.99049 1.87436,11.72166 7.35209,16.35806 15.39192,13.02786 2.14717,-0.8894 8.27727,-6.50736 13.62241,-12.48438 9.9984,-11.18033 11.70288,-12.81178 13.42187,-12.84689 2.15216,-0.0439 0.5363,4.72955 -12.36249,36.52016 -15.29742,37.70229 -16.85339,43.21412 -14.35734,50.85879 1.36135,4.16937 2.97048,5.90593 7.71983,8.33109 5.54487,2.83137 7.39924,3.03365 24.44606,2.66667 l 18.44604,-0.39712 3.88729,-4.35438 c 2.61315,-2.92713 3.88059,-5.7678 3.86687,-8.66666 -0.0386,-8.14456 -3.9232,-10.3123 -18.47991,-10.3123 -5.88689,0 -11.0564,-0.6161 -11.52449,-1.37348 -0.46688,-0.75541 8.49772,-25.92953 19.9213,-55.94246 11.4236,-30.01294 20.77018,-55.76664 20.77018,-57.23044 0,-7.21648 -6.48438,-13.45362 -13.98691,-13.45362 -6.75363,0 -13.88363,5.44791 -31.76098,24.26798 -13.45236,14.16176 -18.49805,18.67873 -19.6178,17.56212 -0.8291,-0.82678 -3.16257,-8.02678 -5.18548,-16 -5.39985,-21.2833 -8.36173,-25.8301 -16.82624,-25.8301 -7.30409,0 -9.74157,4.89907 -33.95388,68.24367 -24.03229,62.87365 -32.75641,83.19183 -39.82518,92.75148 -11.68978,15.80899 -28.46466,19.42751 -40.33738,8.70123 -13.3836,-12.09128 -11.35352,-37.36082 4.37439,-54.45056 10.27004,-11.1593 22.15252,-16.65531 41.98561,-19.41966 9.86224,-1.37461 12.40278,-2.24508 15.46718,-5.29956 6.36312,-6.34253 4.52437,-15.85676 -3.73116,-19.30614 -12.46996,-5.21028 -37.22867,0.44153 -57.59352,13.1472 -28.14014,17.5567 -42.97079,55.22322 -33.6391,85.43574 7.78624,25.2089 32.96904,38.01212 60.60706,30.81334 z m 787.96224,-20.0104 c 5.4984,-2.60919 7.7002,-6.71116 7.1562,-13.3322 -0.6371,-7.75324 -3.2725,-8.56455 -27.8961,-8.58782 -23.3046,-0.022 -28.3257,-1.13014 -31.3151,-6.91102 C 1200.821,512.47489 1180,452.43995 1180,450.16451 c 0,-0.85615 11.9832,-14.7434 26.6294,-30.86058 27.203,-29.93526 32.9826,-38.02261 31.4725,-44.03934 -2.1205,-8.44882 -10.2498,-10.92319 -18.238,-5.55122 -2.4918,1.6757 -16.6862,16.50499 -31.543,32.95399 -14.8569,16.44899 -27.9858,30.45197 -29.1755,31.11773 -2.5496,1.42683 -2.2834,-0.55369 2.2113,-16.45176 5.1974,-18.38357 1.979,-31.8232 -10.1847,-42.53014 -12.2731,-10.80323 -32.3455,-12.51966 -49.226,-4.20942 -10.0967,4.97059 -22.8073,17.97614 -27.6538,28.29551 -11.8274,25.18337 -5.3387,53.43101 14.3745,62.57759 12.5118,5.80522 24.6667,0.65202 24.6667,-10.45771 0,-4.88548 -1.8258,-7.06216 -9.6593,-11.51611 -7.6917,-4.37333 -10.35,-9.12377 -10.3115,-18.42684 0.095,-22.939 26.3678,-40.20766 40.1714,-26.40405 2.8577,2.85772 3.7975,5.06401 3.7919,8.90195 -0.011,7.54621 -1.4214,11.84797 -18.9411,57.76922 -8.813,23.1 -16.3278,44.20439 -16.6995,46.89864 -0.5531,4.00894 -0.052,5.52247 2.7588,8.33334 3.8721,3.87206 8.5454,4.37049 14.0908,1.50284 5.5164,-2.85266 7.1539,-6.02483 19.3966,-37.5767 10.8398,-27.93632 13.086,-32.58512 14.8782,-30.79286 0.4698,0.46978 7.5595,19.92978 15.7548,43.24445 8.1953,23.31467 16.0458,44.12553 17.4455,46.24637 4.9667,7.52552 10.4162,8.74872 39.1219,8.78131 20.5514,0.0233 26.6815,-0.38976 30.1403,-2.03105 z m -306.07795,-30.273 c 5.68436,-4.00754 47.7231,-61.61319 49.73373,-68.15008 1.93662,-6.29638 -0.34964,-11.44675 -5.95661,-13.41862 -6.97058,-2.45141 -11.16726,1.23179 -26.26958,23.05539 -7.68069,11.09899 -14.81685,20.17997 -15.85813,20.17997 -1.53685,0 -1.73171,-1.75694 -1.03511,-9.33333 2.74026,-29.80395 2.76364,-27.42783 -0.30001,-30.49148 -5.93985,-5.93985 -16.29547,-1.75901 -18.7329,7.56297 -0.70877,2.71068 -2.28776,16.82299 -3.50886,31.3607 -2.0834,24.80354 -2.0809,26.79697 0.0407,32.35233 3.69707,9.68064 13.53119,12.77292 21.88675,6.88215 z m -258.17933,-1 C 693.75141,513.2 696.64788,512 697.45155,512 c 0.80365,0 2.98674,1.2 4.8513,2.66667 2.8143,2.21373 5.40904,2.66666 15.27652,2.66666 16.65723,0 22.42064,-3.38548 22.42064,-13.17006 0,-5.79852 -4.11869,-8.16327 -14.21798,-8.16327 -4.56022,0 -8.6656,-0.60561 -9.12307,-1.34583 -0.45747,-0.7402 3.10712,-11.61356 7.92131,-24.16301 4.8142,-12.54945 8.75308,-24.35517 8.75308,-26.23491 0,-8.79384 -10.97758,-12.5216 -18.42351,-6.25625 -2.1788,1.83333 -4.36487,3.33333 -4.85793,3.33333 -0.49307,0 -3.05975,-1.65 -5.70374,-3.66666 C 700.15035,434.46483 698.34456,434 690.1038,434 c -11.67749,0 -17.45925,2.60873 -27.15897,12.25412 -20.98812,20.87056 -22.60014,58.16371 -2.96562,68.60793 6.71191,3.57028 24.2154,3.46008 31.03571,-0.19538 z M 673.658,494.3688 c -4.83267,-2.3302 -6.38333,-9.85795 -3.83581,-18.62111 2.42748,-8.35022 10.49934,-18.45278 16.84313,-21.08046 5.43043,-2.24935 11.99999,-0.34191 14.5656,4.22905 1.80332,3.21283 1.6018,4.43352 -2.63432,15.958 -6.94229,18.88669 -14.30008,24.64417 -24.9386,19.51452 z m 146.36871,20.95073 c 4.65952,-2.40953 6.63997,-5.73702 6.63997,-11.15626 0,-6.3559 -3.91676,-8.16327 -17.69061,-8.16327 -10.71232,0 -12.05649,-0.29256 -15.03665,-3.27273 -1.8762,-1.87619 -3.27274,-4.82583 -3.27274,-6.91236 0,-5.46499 4.83827,-14.39166 12.11659,-22.3553 5.15353,-5.6388 7.61177,-7.28856 11.87645,-7.9705 7.2582,-1.16064 10.67363,-4.81282 10.67363,-11.41351 0,-8.3678 -2.61473,-9.40893 -23.63001,-9.40893 -15.92555,0 -17.97111,-0.26779 -20.36999,-2.66667 -1.46667,-1.46667 -2.66667,-3.86667 -2.66667,-5.33333 0,-3.71894 -4.67189,-8 -8.73033,-8 -5.60622,0 -9.244,5.6806 -17.12063,26.7347 -8.12853,21.72743 -8.88436,26.52998 -4.81571,30.59863 6.10954,6.10953 14.07839,1.60227 18.61514,-10.52888 3.02581,-8.09093 4.495,-9.47112 10.08189,-9.47112 4.9645,0 5.24339,2.44835 0.96186,8.4436 -9.52498,13.33743 -12.63485,24.53268 -9.76759,35.16244 1.82475,6.76485 7.17896,13.44299 12.70927,15.85183 5.96916,2.6 34.32316,2.50052 39.42613,-0.13834 z m 73.651,-2.39349 c 12.44397,-7.29265 21.00589,-22.96051 22.00029,-40.25937 0.82195,-14.29882 -1.11154,-20.79596 -8.5577,-28.7565 -18.43891,-19.71269 -51.99214,-10.85316 -66.57764,17.57944 -2.92747,5.70671 -3.79947,9.4989 -4.25644,18.51039 -0.72548,14.30659 1.17653,21.48595 7.47225,28.20489 7.11215,7.59023 12.81423,9.26526 29.71192,8.72803 12.45195,-0.39588 14.8606,-0.87349 20.20732,-4.00688 z M 865.03354,493.9216 c -4.71516,-2.55883 -6.36686,-5.81285 -6.36686,-12.54344 0,-9.8544 6.29172,-20.31571 14.93379,-24.83053 4.58681,-2.39626 8.23275,-2.38044 12.94463,0.0561 5.04589,2.60933 7.25056,8.47003 6.51642,17.32269 -1.3554,16.34427 -15.78564,26.63879 -28.02798,19.99512 z m 179.52976,19.51265 c 2.5137,-2.3643 3.4367,-4.58205 3.4367,-8.25773 0,-6.90337 -3.522,-9.17652 -14.218,-9.17652 -4.5602,0 -8.6608,-0.59791 -9.1124,-1.32869 -0.4517,-0.73079 3.1129,-11.76472 7.9213,-24.51987 4.8083,-12.75516 8.7425,-24.48452 8.7425,-26.06525 0,-4.25262 -5.8063,-9.41952 -10.5851,-9.41952 -7.8435,0 -11.1471,5.05482 -22.2208,34 -13.13753,34.33954 -13.07572,34.10686 -10.62224,39.97885 3.05664,7.31565 7.71014,8.75648 26.99144,8.35721 15.1066,-0.3128 16.4678,-0.55978 19.6666,-3.56848 z m -0.1797,-86.8812 C 1048.3484,424.74656 1052,418.72813 1052,414 c 0,-13.74743 -18.5799,-19.10381 -24.7666,-7.13996 -6.3445,12.26877 4.9587,25.24783 17.1502,19.69301 z"
         style="fill:#cff0fe;stroke-width:1.33333" />
      <path
         id="path50"
         d="M 792.66668,765.21375 C 666.90163,758.08773 548.90397,732.80363 456.10033,693.09556 447.61182,689.46356 430.46668,681.25441 418.00001,674.85301 317.08593,623.03545 262.66667,557.34008 262.66667,487.33333 c 0,-103.7651 121.84728,-198.07444 319.33334,-247.16281 118.52367,-29.46099 261.83281,-39.44132 394.00001,-27.43896 93.49558,8.49052 179.79598,26.64435 253.33338,53.29028 30.9661,11.22045 50.6495,19.74783 78,33.79181 100.9141,51.81756 155.3333,117.51294 155.3333,187.51968 0,103.34896 -121.0797,197.51586 -317.0482,246.57678 -66.7109,16.70114 -137.3671,26.96021 -216.28515,31.40397 -26.90353,1.51491 -109.22645,1.45447 -136.66667,-0.10027 z M 462.81802,567.99296 c 11.20658,-2.09148 22.7577,-8.47184 31.72627,-17.52425 12.26252,-12.37718 17.81575,-24.21399 47.13479,-100.46871 5.3572,-13.93333 10.32098,-25.22751 11.03065,-25.09816 0.70965,0.12933 2.08012,3.36127 3.04549,7.18204 4.87315,19.28725 13.28394,19.02712 31.592,-0.97709 5.78742,-6.32359 10.72437,-10.89206 10.97101,-10.15215 0.24664,0.73991 -5.87407,17.22739 -13.60157,36.63883 -14.91856,37.47541 -16.31573,43.49082 -12.02741,51.7835 3.26647,6.31667 8.91645,8.4175 24.31165,9.03976 17.48011,0.70656 24.65139,-0.40201 29.6141,-4.57785 4.70019,-3.95495 6.53691,-11.19519 4.02887,-15.88151 C 628.35744,493.68515 622.83884,492 611.13439,492 c -6.42959,0 -9.80104,-0.52123 -9.80104,-1.51524 0,-0.83339 9.07029,-25.28339 20.15621,-54.33333 11.08593,-29.04996 20.22304,-54.96415 20.30471,-57.5871 0.31628,-10.15825 -8.89387,-16.39688 -19.6319,-13.29797 -4.45777,1.28648 -9.20477,5.40124 -25.13492,21.78727 -12.12628,12.4733 -20.09213,19.7062 -20.82315,18.90714 -0.65116,-0.71176 -2.83737,-8.06498 -4.85825,-16.3405 -4.03804,-16.53579 -7.35985,-22.75694 -13.18037,-24.68448 -5.4855,-1.81659 -12.04864,1.63429 -15.32595,8.05833 -1.42688,2.79691 -12.92927,32.06741 -25.56088,65.04559 -24.24667,63.30236 -32.84735,82.51625 -40.96852,91.52365 -13.49885,14.97192 -33.21101,13.76243 -41.18056,-2.52676 -9.53964,-19.49829 3.55381,-47.86683 27.05976,-58.6282 4.09128,-1.87305 14.12047,-4.52904 22.29075,-5.90316 13.2723,-2.2322 15.24329,-2.92639 18.51973,-6.52269 6.07444,-6.66746 3.80719,-16.58004 -4.60379,-20.12808 -6.72357,-2.83623 -22.5938,-1.98428 -34.61841,1.85838 -41.92558,13.39803 -66.94728,51.5601 -59.65852,90.98866 3.64838,19.73589 16.01865,33.50656 34.57971,38.49437 8.83574,2.37437 14.63978,2.56619 24.11902,0.79708 z m 789.42968,-20.0394 c 9.022,-2.5058 14.3376,-12.63159 10.4471,-19.90097 -2.2433,-4.19168 -8.9603,-5.38592 -30.2933,-5.38592 -24.1512,0 -27.041,-0.9203 -30.2658,-9.63827 -6.5392,-17.67795 -20.8023,-60.41227 -20.8023,-62.3264 0,-1.23516 11.962,-15.50481 26.5823,-31.71035 14.6203,-16.20553 27.5203,-31.2784 28.6667,-33.49525 7.4057,-14.32119 -5.9931,-25.82755 -18.5624,-15.94053 -1.8913,1.48764 -14.3148,14.79616 -27.6079,29.57446 -30.3835,33.7782 -30.1708,33.55543 -31.1317,32.59448 -0.4403,-0.44024 0.4962,-4.90842 2.0811,-9.92929 3.5496,-11.24511 3.9842,-26.93036 0.9435,-34.04833 -3.1815,-7.44724 -12.2013,-16.40916 -20.0022,-19.87375 -5.5186,-2.45092 -9.3318,-3.09469 -18.3174,-3.09248 -9.9534,0.003 -12.4586,0.52244 -20.3835,4.23099 -16.0301,7.50138 -29.8698,23.7154 -34.2279,40.10013 -0.8454,3.17831 -1.5266,10.54483 -1.5138,16.37004 0.029,13.23765 4.3557,23.91919 12.8662,31.76392 12.4359,11.46299 30.1424,9.70433 33.4109,-3.31845 1.4214,-5.6632 -0.923,-9.91299 -7.4706,-13.54224 -8.4513,-4.68447 -10.4758,-6.77208 -12.2232,-12.60456 -2.1752,-7.25998 0.4355,-17.92914 6.2506,-25.54492 14.4241,-18.89075 39.9684,-13.04075 35.2374,8.06986 -0.7819,3.48914 -8.9996,26.14772 -18.2614,50.35242 -10.1639,26.56189 -16.8602,45.94849 -16.8913,48.90202 -0.1465,13.9194 17.4485,15.2717 25.1508,1.93299 1.7446,-3.02124 7.7749,-17.49316 13.4008,-32.15983 5.6258,-14.66666 10.7224,-27.18108 11.3257,-27.80981 1.6919,-1.76327 3.0208,1.498 17.3955,42.69029 7.3799,21.14816 14.9062,40.99054 16.7251,44.09418 3.6047,6.15104 6.7321,8.35428 13.89,9.78554 7.3777,1.47522 48.149,1.36871 53.581,-0.13997 z M 947.50495,517.8292 c 3.42154,-1.62361 10.02444,-9.59427 26.19551,-31.62168 23.91979,-32.58233 28.01984,-39.43332 26.76624,-44.72548 -1.81997,-7.68311 -8.1306,-10.77245 -15.61615,-7.64479 -3.47562,1.4522 -7.42057,6.12747 -17.26145,20.45702 -7.01591,10.21602 -13.69359,19.35256 -14.83931,20.30342 -1.82781,1.51695 -2.08176,1.09604 -2.07217,-3.43444 0.007,-2.83978 0.61752,-10.45758 1.35888,-16.92842 1.03765,-9.05702 0.95841,-12.57552 -0.34428,-15.28552 -2.22928,-4.63764 -8.70395,-6.55976 -13.80146,-4.09722 -7.19857,3.47755 -8.53482,8.01676 -11.12857,37.80342 -3.0066,34.52774 -1.91933,41.35542 7.23783,45.45106 5.31253,2.3761 8.03083,2.32027 13.50493,-0.27737 z m -256.18671,-2.55591 6.38207,-3.39338 3.25648,3.06005 c 2.7421,2.57671 4.97708,3.12851 14.14985,3.49355 14.27288,0.56798 20.71233,-1.53003 24.10151,-7.85244 5.17086,-9.64614 -0.80235,-15.9144 -15.16531,-15.9144 -3.69023,0 -6.70949,-0.59768 -6.70949,-1.32818 0,-0.7305 3.60038,-10.7805 8.00085,-22.33333 10.51377,-27.60251 10.66924,-28.5402 5.5762,-33.63324 -2.22123,-2.22123 -5.00401,-4.03859 -6.18399,-4.03859 -2.34821,0 -9.52928,3.06602 -12.77968,5.45639 -1.61461,1.1874 -3.12813,0.7806 -7.0843,-1.90413 -24.17852,-16.40799 -59.56635,13.4732 -59.51606,50.25486 0.0141,10.30442 3.67136,20.5444 9.04307,25.31966 7.81576,6.94793 26.47853,8.36964 36.9288,2.81318 z m -17.45196,-21.62704 c -8.16885,-5.45449 -4.30031,-23.55662 7.26168,-33.97958 6.16097,-5.55403 12.05941,-6.55446 17.24204,-2.9244 4.01952,2.81538 3.74447,6.31132 -1.58017,20.08408 -5.66408,14.65074 -8.52155,17.84726 -15.92976,17.8199 -3.0397,-0.0107 -6.1869,-0.46122 -6.99379,-1 z m 144.79856,23.2785 c 5.8324,-1.98974 10.20119,-9.29279 8.82919,-14.75927 -1.26793,-5.05184 -7.73588,-7.49881 -19.82119,-7.49881 -12.03461,0 -15.67282,-2.04172 -15.67282,-8.79539 0,-10.134 13.4425,-27.63073 22.41984,-29.18161 5.66085,-0.97794 8.505,-2.82215 10.6957,-6.93535 2.27378,-4.26917 1.89714,-9.03147 -0.99704,-12.60661 -2.41798,-2.98692 -3.5516,-3.18176 -22.19316,-3.81438 -21.23764,-0.72072 -20.06977,-0.26509 -23.35678,-9.11217 -3.1413,-8.45483 -13.71407,-8.31952 -18.1363,0.23212 -3.59897,6.95965 -16.43227,42.08855 -16.43227,44.98047 0,4.27629 2.21034,7.38704 6.5161,9.17054 6.54332,2.71034 10.67792,-0.263 16.13641,-11.60429 4.36644,-9.07229 4.91982,-9.66667 9,-9.66667 2.39112,0 4.3475,0.59862 4.3475,1.33026 0,0.73162 -2.09494,4.24624 -4.65543,7.81025 -6.69491,9.31883 -8.84458,15.37217 -8.84458,24.90588 0,12.67733 4.80337,20.80803 14.87301,25.17565 5.69468,2.47002 30.41653,2.71488 37.29182,0.36938 z m 74.75955,-3.10299 c 8.09964,-4.40837 13.11011,-10.42143 18.9086,-22.6922 3.9162,-8.28743 4.31504,-10.29796 4.32392,-21.79623 0.0107,-13.9638 -1.49384,-18.31825 -9.13949,-26.45017 -6.9997,-7.44488 -13.46722,-10.07327 -24.85074,-10.09931 -8.03377,-0.0184 -11.49906,0.67048 -17.62409,3.50339 -10.6068,4.9058 -20.16747,14.27459 -25.38753,24.87805 -4.00187,8.12894 -4.32171,9.7675 -4.32171,22.14 0,11.19976 0.47264,14.24463 2.92145,18.82095 3.97107,7.42109 11.29395,13.56467 17.38338,14.58385 2.76568,0.4629 5.6285,1.08656 6.36184,1.38594 0.73333,0.29936 6.58017,0.28938 12.99298,-0.0221 9.5393,-0.46345 12.89111,-1.2367 18.43139,-4.2521 z m -30.15164,-22.42783 c -2.62651,-2.62649 -3.27273,-4.62709 -3.27273,-10.13182 0,-8.51832 2.75149,-14.49054 9.47422,-20.56411 12.57702,-11.36259 27.23622,-0.85789 22.63718,16.22164 -1.84266,6.84307 -6.60976,13.91184 -10.8181,16.04128 -5.71825,2.89347 -14.30696,2.14664 -18.02057,-1.56699 z m 175.66665,25.88604 c 9.1202,-2.53298 13.2386,-12.13825 7.9858,-18.62512 -1.9634,-2.4247 -4.1794,-3.10065 -12,-3.6602 -5.2755,-0.37746 -9.5918,-1.1841 -9.5918,-1.79252 0,-0.60842 3.6562,-10.8778 8.1251,-22.82084 4.4688,-11.94305 8.1869,-23.63685 8.2625,-25.98624 0.1565,-4.86726 -3.0568,-9.10526 -7.8079,-10.29772 -4.3004,-1.07933 -11.8487,2.21416 -14.5607,6.35308 -4.3448,6.63103 -23.35238,58.29908 -23.35238,63.47851 0,6.36644 3.06712,10.27067 9.99998,12.72931 6.2628,2.22101 25.8499,2.59072 32.9394,0.62174 z m 9.6162,-93.2252 c 5.4737,-5.46658 5.5387,-14.38952 0.1459,-20.01841 -4.7367,-4.94411 -9.768,-6.07407 -15.8081,-3.55033 -11.3494,4.74208 -11.6519,21.94922 -0.4738,26.94774 5.6802,2.53996 11.4109,1.3399 16.136,-3.379 z"
         style="fill:#afe6fe;stroke-width:1.33333" />
      <path
         id="path48"
         d="m 825.33335,765.87368 c -87.3325,-3.525 -158.58636,-12.45956 -229.33334,-28.75625 -158.88245,-36.59884 -277.04227,-105.92506 -316.65099,-185.7841 -21.50588,-43.36012 -21.50588,-84.63988 0,-128 47.40799,-95.58392 204.05015,-173.49089 407.31766,-202.58201 58.95257,-8.43715 110.19339,-11.90243 176,-11.90243 51.82535,0 80.51126,1.34194 126.00001,5.8943 239.19351,23.93773 423.96751,113.5214 464.77471,225.33601 6.3693,17.45239 8.215,28.06929 8.215,47.25413 0,19.18484 -1.8457,29.80175 -8.215,47.25414 -43.8111,120.04525 -252.2492,213.15621 -513.44138,229.35834 -23.59215,1.46346 -96.00839,2.68098 -114.66667,1.92787 z M 477.6424,563.64 c 7.37573,-3.64528 12.27112,-7.34415 18.60248,-14.05573 12.13929,-12.8683 17.86229,-25.22556 46.5798,-100.57655 4.67977,-12.27909 9.07976,-22.13873 9.77776,-21.91031 0.69798,0.22843 2.00164,3.28694 2.89698,6.79671 2.08807,8.18521 6.32874,12.77255 11.8073,12.77255 5.11633,0 10.02928,-3.56535 19.29162,-14 3.90568,-4.4 7.60883,-8.56 8.22923,-9.24444 3.74111,-4.12732 1.12513,3.98178 -10.99492,34.08244 -11.93265,29.63525 -13.63424,34.84792 -13.72688,42.0511 -0.09,7.00092 0.38944,8.75964 3.22757,11.83851 5.63508,6.11305 10.31503,7.27239 29.35673,7.27239 18.63229,0 23.1687,-1.15884 27.22901,-6.95572 1.14451,-1.63403 2.08093,-5.49391 2.08093,-8.57752 0,-8.56016 -4.05746,-11.13343 -17.55498,-11.13343 -7.98354,0 -10.70864,-0.46891 -11.27307,-1.93976 -0.40939,-1.06687 8.30944,-25.6518 19.37519,-54.63319 12.54668,-32.85997 20.11953,-54.51272 20.11953,-57.5269 0,-7.31946 -7.04265,-13.90188 -14.86667,-13.89516 -8.4731,0.007 -13.05368,3.33937 -32.64915,23.75029 -9.63369,10.0346 -17.93692,17.84149 -18.45162,17.34865 -0.5147,-0.49284 -2.58415,-7.39284 -4.59878,-15.33333 C 566.53845,367.84843 563.85977,364 554.16296,364 c -8.78358,0 -10.91264,4.16943 -37.48914,73.41651 -26.15592,68.15122 -32.43652,82.1593 -41.00368,91.45358 -7.08937,7.69107 -11.96294,10.15035 -20.35537,10.27166 -8.94039,0.1292 -15.08307,-3.46872 -19.07407,-11.17226 -2.69162,-5.19545 -3.02516,-7.43904 -2.57216,-17.30282 1.25376,-27.30026 18.90411,-42.90027 54.41322,-48.09239 14.07785,-2.05845 18.58492,-5.6692 18.58492,-14.88893 0,-4.78879 -0.7421,-6.56407 -4.08108,-9.76303 -3.67466,-3.52055 -5.11646,-3.95693 -14.47807,-4.38207 -24.16507,-1.09738 -54.20309,13.48536 -68.91816,33.45816 -12.20643,16.5678 -16.5227,29.30078 -16.5227,48.74192 0,25.97494 11.16975,43.62076 32.39979,51.18478 5.34326,1.90374 9.87311,2.37765 19.74979,2.06621 11.68045,-0.36833 13.70332,-0.84257 22.82615,-5.35132 z m 778.0937,-16.17016 c 7.4893,-3.87289 10.9843,-11.56901 8.2507,-18.16853 -2.3806,-5.74712 -6.2645,-6.63446 -29.0495,-6.63671 -30.8173,-0.003 -27.6485,2.87296 -41.8662,-37.99793 -6.3776,-18.33334 -11.6276,-33.77638 -11.6667,-34.31788 -0.039,-0.5415 11.1736,-13.37003 24.9171,-28.50784 29.3719,-32.35174 32.3837,-36.23635 33.2809,-42.92527 0.5523,-4.11743 0.016,-5.83137 -2.9146,-9.31416 -4.2626,-5.06579 -10.9044,-5.75231 -17.3896,-1.79747 -2.2193,1.35342 -15.9765,15.75118 -30.5715,31.99502 -24.4607,27.22409 -30.3124,32.92308 -28.2281,27.4914 5.2918,-13.79023 6.079,-33.153 1.6915,-41.6058 -3.6911,-7.11115 -10.2074,-13.63995 -17.4034,-17.43696 -6.1168,-3.22756 -8.1686,-3.58104 -20.7867,-3.58104 -12.769,0 -14.7034,0.3433 -22,3.90424 -15.7154,7.66958 -29.8309,25.62829 -33.9826,43.23505 -2.2161,9.39776 -1.1609,24.59047 2.2406,32.26179 5.7334,12.93057 16.6109,21.17672 28.0126,21.2363 10.4062,0.0544 16.6628,-5.28054 16.6628,-14.20832 0,-5.35544 -2.8822,-8.99928 -9.9857,-12.62473 -10.6465,-5.43368 -13.2516,-17.46871 -6.6143,-30.55609 4.2015,-8.2847 12.3347,-15.11814 19.6203,-16.48492 6.0657,-1.13794 13.8151,2.34532 16.6539,7.4857 3.0278,5.48284 0.9681,12.66082 -17.8174,62.0927 -10.2049,26.85286 -16.7902,46.06356 -16.7902,48.98038 0,10.60686 12.5163,15.22566 21.2789,7.8524 5.4286,-4.56778 6.6415,-7.04425 18.7366,-38.25482 5.6298,-14.52751 10.7795,-26.52751 11.4436,-26.66667 0.6642,-0.13916 7.5249,17.74699 15.246,39.74699 7.7211,22 15.5211,42.64064 17.3333,45.86808 5.4925,9.7818 9.1231,10.73478 41.0278,10.7693 20.6162,0.0223 27.925,-0.4148 30.6699,-1.83421 z M 951.16151,515.97201 c 2.52319,-2.21538 13.23283,-15.86538 23.79922,-30.33333 26.12877,-35.77661 25.31277,-34.49241 26.04547,-40.99243 0.5537,-4.91262 0.1373,-6.29068 -2.78359,-9.21154 -4.76628,-4.76628 -11.48267,-4.65391 -17.00982,0.2846 -2.28944,2.04561 -9.3489,11.15578 -15.68769,20.24481 -11.41089,16.36177 -16.06917,21.05299 -14.44095,14.54305 0.4366,-1.74561 1.2043,-9.54084 1.70596,-17.32272 0.85859,-13.3182 0.74475,-14.31628 -1.93897,-17 -4.45749,-4.45749 -12.77703,-3.92612 -17.48798,1.11696 -2.0387,2.18244 -4.05509,5.63244 -4.48086,7.66667 -1.82814,8.73427 -5.18504,56.33335 -4.30407,61.02932 0.59343,3.16323 2.67176,6.85257 5.39361,9.57443 3.72203,3.72202 5.39883,4.42817 10.51511,4.42817 4.87139,0 7.00308,-0.80439 10.67456,-4.02799 z m -259.12,-0.15554 5.07125,-2.8502 3.62344,2.8502 c 3.14873,2.4768 5.35815,2.8502 16.86461,2.8502 17.78391,0 23.64188,-3.3776 23.70288,-13.66667 0.0452,-7.61837 -3.4612,-10.33333 -13.34552,-10.33333 -5.60242,0 -8.25574,-0.55742 -8.747,-1.83759 -0.38782,-1.01068 2.931,-11.39204 7.37518,-23.06971 9.01396,-23.68533 9.68032,-28.2806 4.8076,-33.1533 -4.30252,-4.30252 -10.83467,-4.30455 -17.16994,-0.005 -2.72456,1.84894 -5.15994,2.70892 -5.60985,1.98095 -2.02936,-3.28356 -11.51455,-6.58111 -18.89436,-6.56865 -38.08471,0.0643 -62.35743,64.86281 -31.33256,83.64556 7.05293,4.2699 26.17827,4.35962 33.65427,0.15788 z m -16.0415,-22.07511 c -3.55773,-1.27151 -5.33333,-4.79255 -5.33333,-10.57607 0,-10.77801 6.39799,-21.50642 15.43423,-25.8808 5.10993,-2.47368 6.247,-2.59757 9.51782,-1.03704 4.94382,2.35871 5.38618,7.21934 1.59964,17.57651 -5.12944,14.03041 -7.45004,17.76353 -12.03601,19.36221 -4.55079,1.58642 -6.04425,1.67671 -9.18235,0.55519 z m 145.36003,22.91151 c 4.81238,-2.48858 6.63998,-5.74927 6.63998,-11.8466 0,-7.8232 -3.77534,-10.13583 -16.58475,-10.15926 -12.11584,-0.0221 -16.8038,-1.75761 -18.60829,-6.88868 -1.6283,-4.63 3.52345,-15.3313 11.59805,-24.09166 4.5848,-4.97419 6.73696,-6.33334 10.02857,-6.33334 2.74006,0 5.68803,-1.33758 8.51508,-3.86354 3.57971,-3.19848 4.32407,-4.82963 4.32407,-9.47568 0,-9.44318 -2.75108,-10.66078 -24.08711,-10.66078 -16.07452,0 -18.11785,-0.26556 -20.51896,-2.66666 -1.46666,-1.46667 -2.66666,-3.75354 -2.66666,-5.08192 0,-1.32839 -1.22338,-3.72839 -2.71862,-5.33334 -3.93304,-4.22162 -10.54077,-3.88918 -14.87897,0.74859 -3.98034,4.25519 -18.56404,41.49775 -18.7833,47.96711 -0.2963,8.74246 9.99814,14.15404 17.25544,9.07082 1.54068,-1.07913 4.50868,-5.88138 6.59555,-10.67168 3.70234,-8.49846 7.3437,-11.75245 10.08447,-9.01168 0.82597,0.82598 -0.64972,4.28132 -4.12444,9.65739 -6.00858,9.29643 -8.07827,15.29768 -8.08936,23.45575 -0.0147,10.74508 5.56807,21.01568 13.5654,24.95661 6.1284,3.01996 36.7372,3.18475 42.45385,0.22855 z m 67.00231,0.41438 c 7.82408,-2.34416 18.86743,-13.07077 23.53583,-22.86081 9.31133,-19.52669 8.11541,-38.80453 -3.18314,-51.31067 -7.13916,-7.9022 -16.16334,-11.26973 -28.60061,-10.67281 -12.61249,0.60532 -20.80007,4.33883 -30.31288,13.82257 -8.31528,8.28987 -13.08072,17.29318 -15.12744,28.58019 -3.51468,19.38229 4.13761,37.08233 18.19949,42.09608 6.40526,2.28379 28.30756,2.49699 35.48875,0.34545 z m -20.00243,-23.29222 c -1.6354,-0.34111 -4.24441,-2.23004 -5.79781,-4.19762 -6.25996,-7.92901 0.51868,-26.21802 11.52136,-31.08502 5.27013,-2.33123 6.24376,-2.39146 10.42416,-0.64478 2.53609,1.05966 5.25937,3.13799 6.05173,4.61852 3.89248,7.27318 -0.50886,23.13294 -7.89268,28.44042 -3.65526,2.6274 -9.67556,3.83445 -14.30676,2.86848 z m 174.47798,22.80308 c 4.7163,-2.43887 8.2473,-9.77988 7.0324,-14.62044 -1.2872,-5.12859 -5.5014,-7.291 -14.2088,-7.291 -5.4463,0 -7.96,-0.55975 -8.4689,-1.8859 -0.398,-1.03725 2.9208,-11.51957 7.3752,-23.29405 4.4544,-11.77448 8.0989,-23.25309 8.0989,-25.50804 0,-5.92405 -5.1637,-10.64535 -11.6427,-10.64535 -6.0846,0 -10.2447,2.63996 -13.2592,8.41427 -3.9029,7.47608 -21.78489,54.73883 -22.59439,59.71793 -1.01752,6.25848 2.03633,12.14974 7.76039,14.97072 6.1729,3.04215 34.1066,3.14144 39.9071,0.14186 z M 1048.8,424.8 c 3.8695,-3.86951 4.5334,-5.45099 4.5334,-10.8 0,-5.34901 -0.6639,-6.93049 -4.5334,-10.8 -3.7164,-3.7164 -5.5425,-4.53333 -10.1333,-4.53333 -4.5909,0 -6.4169,0.81693 -10.1333,4.53333 -3.8696,3.86951 -4.5334,5.45099 -4.5334,10.8 0,5.34901 0.6638,6.93049 4.5334,10.8 3.7164,3.7164 5.5424,4.53333 10.1333,4.53333 4.5908,0 6.4169,-0.81693 10.1333,-4.53333 z"
         style="fill:#9be0fe;stroke-width:1.33333" />
      <path
         id="path46"
         d="M 792.88023,763.85945 C 550.01821,750.62276 346.71909,668.79949 283.90046,559.00668 258.90498,515.32023 257.32203,467.90495 279.39062,423.91884 295.96655,390.88041 330.72846,354.84769 372.24667,327.66817 519.8476,231.04261 773.89882,188.33804 1020,218.78449 c 89.031,11.01448 177.0438,33.54484 246.5401,63.11166 110.4665,46.9973 179.6487,111.89634 192.7167,180.78502 16.3952,86.42876 -54.7777,171.404 -192.7167,230.08935 -93.3541,39.71701 -210.1476,64.32468 -337.87342,71.18785 -28.9679,1.55655 -106.44818,1.50011 -135.78645,-0.0989 z M 462.81225,569.30572 c 9.41308,-1.78515 21.78479,-7.75229 28.87183,-13.92549 13.73249,-11.96178 22.4686,-29.45459 47.12269,-94.35639 6.88961,-18.13689 12.934,-32.98689 13.43196,-33 0.49796,-0.0133 1.83403,3.17055 2.96903,7.07481 3.13089,10.7699 8.9381,14.54751 17.11276,11.13191 2.48393,-1.03785 8.62861,-6.46368 13.65482,-12.05739 5.02622,-5.5937 9.41768,-9.89126 9.75883,-9.55012 0.34115,0.34114 -5.30949,15.19051 -12.55695,32.9986 -12.53857,30.80912 -13.17721,32.85215 -13.17721,42.15439 0,9.3218 0.19892,9.95377 4.28112,13.60121 6.12315,5.47104 13.30185,6.95707 31.0169,6.42068 18.62424,-0.56392 23.57336,-2.6959 26.64364,-11.47762 4.05748,-11.60536 -2.65495,-17.64794 -19.60832,-17.65158 -5.31667,-10e-4 -9.66667,-0.34593 -9.66667,-0.76622 0,-0.42028 9.11433,-24.57028 20.25408,-53.66667 12.57844,-32.85419 20.27263,-54.77567 20.30303,-57.84532 0.0643,-6.48585 -4.03686,-11.8856 -10.85832,-14.29673 -9.40404,-3.32396 -14.52438,-0.26222 -35.6101,21.29332 C 586.74141,395.6242 578.04352,404 577.42673,404 c -0.6168,0 -2.764,-6.62088 -4.77156,-14.71307 -3.8326,-15.44858 -7.21815,-22.10721 -12.69519,-24.96865 -3.9597,-2.06871 -10.16653,-1.14733 -13.68102,2.03089 -4.17531,3.7758 -6.74068,9.8169 -29.76762,70.09883 -22.47501,58.83701 -33.17233,83.12532 -40.41644,91.76561 -8.39338,10.01108 -23.25017,13.45215 -32.15896,7.44852 -7.46866,-5.03313 -9.93593,-10.75026 -9.93593,-23.0235 0,-9.3713 0.53621,-11.78391 4.33324,-19.49678 8.28955,-16.83844 21.18801,-25.08096 45.82693,-29.2848 7.99312,-1.36377 15.96632,-3.41876 17.71822,-4.56665 6.49438,-4.25528 7.83542,-16.11948 2.38006,-21.05649 C 500.6359,434.95552 492.60528,432 487.31996,432 c -9.7318,0 -25.55624,4.27441 -37.98662,10.26073 -16.63696,8.01218 -31.70671,22.54184 -39.14207,37.73927 -24.13862,49.33791 4.75954,98.38247 52.62098,89.30572 z m 794.16525,-21.66163 c 7.1204,-3.89144 10.4064,-13.32125 6.9152,-19.84462 -2.7749,-5.1849 -9.0711,-6.46614 -31.7755,-6.46614 -20.2107,0 -21.4731,-0.15365 -24.6469,-3 -2.4804,-2.22449 -6.1186,-11.1109 -14.0743,-34.3768 -5.9011,-17.25722 -10.7169,-32.25722 -10.7018,-33.33333 0.015,-1.07609 12.0083,-15.15653 26.6514,-31.28987 14.6431,-16.13333 27.5307,-31.22401 28.6391,-33.53484 5.9293,-12.36117 -2.4847,-24.52004 -14.2396,-20.57729 -6.2574,2.0988 -11.0456,6.72945 -37.7441,36.50224 -13.0159,14.51456 -23.9601,26.09519 -24.3206,25.73473 -0.3604,-0.36046 0.019,-2.5903 0.8436,-4.95522 7.8156,-22.41992 2.2644,-42.66823 -14.4697,-52.77871 -19.5564,-11.81564 -44.2708,-7.78431 -62.5374,10.20092 -14.0358,13.81956 -21.3677,34.11083 -18.8163,52.07484 1.3292,9.35821 2.9843,13.53035 8.3098,20.94584 12.653,17.61909 37.683,17.58072 40.546,-0.0621 0.9848,-6.06838 -1.7629,-10.57631 -8.5759,-14.07011 -8.8881,-4.55796 -11.6096,-8.61704 -11.5523,-17.23067 0.133,-19.99846 21.7536,-36.76082 34.4916,-26.74114 5.1629,4.06114 6.361,8.15334 4.5599,15.57416 -0.8345,3.4379 -9.0548,26.05074 -18.2674,50.25074 -10.2543,26.93628 -16.7634,45.90991 -16.7843,48.92484 -0.062,8.96428 8.3757,14.66687 17.3293,11.71192 8.3757,-2.76421 10.0844,-5.87677 26.5738,-48.4055 4.2156,-10.8728 8.1385,-19.2728 8.7174,-18.66667 0.579,0.60615 7.0746,18.37872 14.4348,39.49461 14.0966,40.44195 17.3385,47.76106 23.0138,51.9564 5.6404,4.16962 11.0738,4.82508 37.8363,4.56446 21.3902,-0.20832 26.0043,-0.61342 29.6441,-2.60263 z M 950.63542,517.58888 c 5.20744,-3.83948 48.85215,-63.954 50.55238,-69.62888 3.6002,-12.01649 -8.48781,-21.09351 -18.95618,-14.23436 -1.89619,1.24243 -9.02401,10.34448 -15.83961,20.22676 -6.81559,9.88228 -12.89586,17.98575 -13.51168,18.00769 -0.61583,0.022 -0.62426,-5.21009 -0.0187,-11.62676 1.79979,-19.07177 1.52035,-21.56902 -2.83256,-25.31325 -4.64295,-3.99368 -11.25849,-3.48404 -16.36168,1.26045 -4.99912,4.64772 -5.67618,7.62039 -8.3032,36.45598 -2.52892,27.75881 -2.19494,35.09537 1.88085,41.3158 4.72448,7.21046 16.07907,8.92725 23.3904,3.53657 z m -259.49718,-0.75649 6.25684,-3.16762 3.60276,2.83428 c 4.28869,3.37391 20.43381,4.65435 29.13701,2.31082 10.7264,-2.88831 15.71704,-13.62479 9.62524,-20.70694 -2.72198,-3.16449 -4.46942,-3.80028 -12.13661,-4.41573 -4.92624,-0.39543 -8.9568,-0.8984 -8.9568,-1.11772 0,-0.21932 3.53316,-9.64992 7.85147,-20.95689 9.68765,-25.36594 10.22097,-27.64907 7.6293,-32.6608 -3.90564,-7.5527 -13.94822,-8.49866 -21.1389,-1.99118 -2.00506,1.81455 -2.94299,1.94615 -4.75326,0.66696 -10.12029,-7.15132 -21.51701,-8.32882 -32.4895,-3.35681 -22.54506,10.21595 -37.26499,42.39844 -30.19139,66.00804 2.11284,7.05201 9.88097,15.43888 16.42561,17.73389 8.71784,3.05711 21.8163,2.52652 29.13823,-1.1803 z m -18.61128,-26.85851 c -8.65696,-13.21217 15.05987,-42.81367 25.2664,-31.53556 3.09709,3.42224 2.83783,5.29964 -2.6124,18.91695 -5.2954,13.23044 -7.95168,15.97806 -15.44688,15.97806 -3.87872,0 -5.50157,-0.75646 -7.20712,-3.35945 z m 144.9054,28.68737 c 10.24968,-2.84728 14.91011,-13.6809 8.89402,-20.67504 -3.08968,-3.59196 -4.00764,-3.84704 -15.8033,-4.39138 -15.30797,-0.70643 -17.18973,-1.54879 -17.18973,-7.69486 0,-5.88508 3.51389,-12.81328 10.54177,-20.78478 4.30427,-4.8822 6.68219,-6.42091 11.06792,-7.16188 11.90754,-2.01176 17.44132,-14.70026 9.61846,-22.05423 -3.25454,-3.05945 -4.46656,-3.25692 -22.65051,-3.69043 l -19.21197,-0.458 -1.55412,-5.18718 c -2.03742,-6.80031 -5.5012,-9.76347 -11.413,-9.76347 -3.74757,0 -5.56614,0.91513 -8.28107,4.1672 -3.78295,4.53136 -18.78415,43.61555 -18.78415,48.94029 0,5.3433 5.5154,10.62584 11.09423,10.62584 6.27408,0 9.75358,-3.25792 14.4538,-13.53333 3.22292,-7.04584 4.33696,-8.33333 7.2106,-8.33333 3.69052,0 3.59161,0.45106 -1.62415,7.40673 -8.33953,11.12151 -11.26693,27.38401 -6.82715,37.9266 2.52221,5.98912 9.80493,13.07732 14.98402,14.58379 5.60757,1.63109 29.69223,1.68369 35.47433,0.0775 z m 75.29648,-2.69134 c 7.20574,-3.48823 15.44052,-12.58546 19.87238,-21.95363 11.21946,-23.71603 6.47944,-47.63392 -11.47188,-57.88635 -18.94935,-10.82241 -44.04666,-3.44853 -58.10778,17.07274 -7.50049,10.94646 -10.16896,20.41146 -9.41696,33.40178 1.01271,17.49395 9.59532,29.02612 23.84286,32.03688 9.69364,2.04844 28.46797,0.6269 35.28138,-2.67142 z m -26.72882,-24.22984 c -3.9942,-2.26496 -4.62598,-3.7778 -4.62432,-11.0734 10e-4,-8.11132 4.0599,-15.94822 10.50846,-20.29391 5.80972,-3.91517 11.01944,-3.8552 15.70818,0.1808 3.25154,2.79891 3.7326,4.15175 3.67669,10.33983 -0.0764,8.45434 -4.66203,17.71284 -10.18845,20.57066 -4.32499,2.23654 -11.39506,2.36594 -15.08056,0.27602 z m 172.91428,26.88016 c 10.5529,-2.93098 15.2438,-14.87536 8.376,-21.32736 -2.6516,-2.491 -5.2278,-3.28986 -12,-3.72108 -4.743,-0.30202 -8.6236,-0.76212 -8.6236,-1.02246 0,-0.26034 3.3795,-9.34044 7.51,-20.178 9.4515,-24.79874 10.1401,-27.69889 7.8674,-33.13808 -2.0087,-4.80746 -9.2076,-8.07176 -14.3565,-6.50984 -3.9276,1.19147 -8.7782,5.65634 -11.1977,10.30728 -5.49,10.55323 -21.82321,56.08484 -21.82321,60.83579 0,6.70496 4.82678,12.71268 11.67551,14.53201 6.7048,1.78114 26.473,1.91571 32.5721,0.22174 z m 5.5227,-89.77166 c 13.223,-5.52492 12.154,-26.16761 -1.568,-30.27884 -9.5571,-2.86336 -20.1923,5.26374 -20.1923,15.43027 0,5.55584 4.5498,12.45839 9.6829,14.68988 5.4541,2.37105 6.7419,2.38799 12.0774,0.15869 z"
         style="fill:#8bdbfe;stroke-width:1.33333" />
      <path
         id="path44"
         d="M 822.00002,764.54897 C 657.69009,757.50864 523.07128,726.93863 418.00001,672.80633 330.72421,627.8422 278.2237,572.01612 266.50645,511.71665 c -2.09652,-10.78914 -2.09652,-37.97749 0,-48.76664 18.28038,-94.07476 136.14004,-176.27246 316.82689,-220.96149 60.50591,-14.96484 119.74826,-24.03363 192.68273,-29.49575 41.41596,-3.10168 131.88527,-3.10168 173.30123,0 143.3601,10.73636 263.6969,40.7747 358.0161,89.36756 87.2757,44.96414 139.7762,100.79022 151.4936,161.08968 2.0965,10.78915 2.0965,37.9775 0,48.76664 -16.3606,84.19458 -113.4868,159.90375 -265.3209,206.81546 -73.4473,22.69278 -154.6898,37.22778 -242.83941,43.44609 -27.54201,1.94288 -106.50158,3.52051 -128.66667,2.57077 z M 477.54349,565.02223 c 10.7296,-5.30286 20.67243,-13.97324 27.60476,-24.07202 6.04497,-8.80609 14.00901,-27.13833 31.1124,-71.61688 8.03671,-20.9 15.08476,-38.48896 15.66235,-39.08657 0.5776,-0.59763 1.75193,1.70037 2.60965,5.10665 2.95016,11.71616 11.39671,15.79191 20.74879,10.012 2.34457,-1.44902 7.43394,-6.28046 11.30972,-10.73654 3.87578,-4.45608 7.26756,-7.88127 7.5373,-7.61154 0.26974,0.26974 -5.25677,14.84255 -12.2811,32.38403 -8.00011,19.9782 -13.00618,34.39144 -13.39959,38.57945 -0.83788,8.91963 2.4504,15.01116 10.26675,19.01919 5.2045,2.66873 7.81425,3 23.63423,3 19.30517,0 23.10477,-1.00871 28.2002,-7.48651 2.75116,-3.49752 3.7082,-11.22133 1.95616,-15.78709 -1.51559,-3.94953 -7.93659,-6.05973 -18.43888,-6.05973 -7.0275,0 -10.06622,-0.49064 -10.06622,-1.62532 0,-0.89392 9,-25.20074 20,-54.01512 11,-28.8144 20,-54.2128 20,-56.4409 0,-13.9282 -15.0304,-20.43602 -28.07229,-12.15469 -3.26024,2.07019 -13.08168,11.38621 -21.82544,20.70228 -8.74375,9.31605 -16.31526,16.47227 -16.82559,15.90268 -0.51032,-0.56957 -2.29232,-6.7356 -3.96,-13.70227 -4.96315,-20.7333 -9.16891,-26.66666 -18.90224,-26.66666 -10.09387,0 -11.19463,2.09356 -38.23225,72.71445 -13.46647,35.17372 -27.24955,69.34228 -30.62907,75.93012 -10.28689,20.05268 -21.95709,29.189 -33.99803,26.61624 -11.83709,-2.5292 -17.18472,-10.44684 -17.18472,-25.44348 0,-13.05645 5.06843,-23.933 15.66623,-33.6188 8.81167,-8.05336 17.57896,-11.59872 36.5014,-14.76063 12.53423,-2.09444 14.23716,-2.72732 17.66667,-6.56558 7.20033,-8.05858 4.04381,-20.30919 -6.24039,-24.21924 -5.57496,-2.11959 -19.39064,-1.52787 -30.46663,1.30489 -31.11028,7.95667 -56.65869,32.24879 -64.05075,60.90115 -2.9984,11.62217 -2.75666,30.13277 0.5311,40.66709 4.70121,15.06321 17.16217,27.76361 31.84889,32.46089 4.11662,1.31662 10.44268,1.85648 18.98935,1.62055 11.71053,-0.32329 13.67129,-0.77641 22.72724,-5.25209 z m 779.76631,-17.19599 c 2.5537,-1.55675 5.3611,-3.80451 6.2387,-4.99501 2.5674,-3.48263 3.3168,-10.26991 1.5597,-14.12619 -2.8979,-6.36023 -6.9801,-7.37171 -29.7515,-7.37171 -30.7305,0 -27.2311,3.17776 -41.1611,-37.37761 -11.2126,-32.64381 -11.5004,-33.78223 -9.2181,-36.46008 1.2957,-1.52028 10.7656,-12.07875 21.0442,-23.46323 30.3156,-33.57738 32.6538,-36.41908 34.1927,-41.55542 4.0329,-13.46055 -8.8659,-23.35976 -20.881,-16.02528 -2.2,1.34296 -9.85,8.84072 -17,16.66169 -7.15,7.82096 -18.7792,20.54075 -25.8427,28.26619 -7.0634,7.72544 -13.0739,13.81492 -13.3567,13.5322 -0.2827,-0.28274 0.4671,-4.34368 1.6662,-9.02434 4.3053,-16.80524 0.9032,-31.34916 -9.6872,-41.41276 -9.5649,-9.08905 -15.2961,-11.14136 -31.113,-11.14136 -12.7557,0 -14.711,0.34608 -22,3.89396 -10.2735,5.0006 -25.4531,20.11566 -30.2345,30.10604 -7.1054,14.84615 -8.2054,34.59248 -2.6293,47.19824 5.7014,12.88891 17.8253,22.04739 29.2634,22.10582 10.6524,0.0544 17.6004,-5.87563 17.6004,-15.02172 0,-7.18324 -1.7918,-9.79412 -9.3505,-13.62439 -11.2196,-5.68541 -13.7999,-16.47904 -7.136,-29.8516 6.2663,-12.5748 18.5474,-18.61547 28.2205,-13.88069 10.6166,5.19656 9.9804,8.57006 -12.9465,68.65732 -9.9141,25.98292 -16.1208,44.11808 -16.1208,47.10256 0,10.46244 12.2534,16.14233 22.0006,10.19806 5.3749,-3.27785 9.2948,-10.95584 20.7351,-40.615 5.3175,-13.7856 10.0982,-24.5856 10.6237,-24 0.5256,0.5856 6.7729,17.87595 13.8829,38.423 15.3647,44.40192 17.8437,49.50847 26.0402,53.64174 5.5946,2.82121 7.5812,2.9997 33.3333,2.99501 25.5606,-0.004 27.6934,-0.19348 32.0273,-2.83544 z M 949.59855,519 c 3.96542,-2.3074 45.95879,-57.77072 50.68935,-66.94859 7.0755,-13.72752 -4.28241,-26.2825 -17.56351,-19.41458 -2.29696,1.1878 -8.75665,9.12769 -16.26712,19.99465 -6.85149,9.91347 -12.78048,18.02689 -13.17552,18.02984 -0.39505,0.003 -0.28214,-4.34465 0.2509,-9.66132 1.80913,-18.04447 1.47049,-22.11809 -2.1387,-25.72727 -7.10869,-7.1087 -20.36252,-2.29376 -23.34141,8.47964 -0.74735,2.70286 -2.38688,17.25836 -3.64339,32.34556 -2.19579,26.36532 -2.19035,27.67795 0.13988,33.77955 4.01685,10.51799 15.47811,14.69195 25.04952,9.12252 z m -257.49168,-1.72117 5.33394,-2.72118 3.45942,2.72118 c 2.95418,2.32376 5.39006,2.72117 16.67914,2.72117 18.52256,0 25.08731,-3.93141 25.08731,-15.02395 0,-8.06749 -4.4852,-11.64272 -14.60607,-11.64272 -4.43333,0 -8.0606,-0.58262 -8.0606,-1.29473 0,-0.71209 3.6,-10.88064 8,-22.59675 4.4,-11.7161 8,-23.17962 8,-25.47449 0,-5.82976 -6.27705,-11.96907 -12.23077,-11.96237 -2.43973,0.003 -6.47629,1.24889 -8.97012,2.76922 l -4.53421,2.76426 -6.31288,-3.4359 c -23.49068,-12.78524 -55.51343,11.02362 -60.29086,44.82614 -2.47365,17.5022 3.16246,32.2388 14.64876,38.30184 7.27034,3.83762 26.31584,3.86484 33.79694,0.0483 z m -18.01162,-26.04074 c -2.96777,-2.96777 -2.72064,-14.12849 0.44932,-20.29121 3.08531,-5.99816 8.8328,-11.62351 13.78878,-13.49572 4.25553,-1.60761 9.55396,-0.072 10.78054,3.12441 0.72059,1.87782 -4.05797,16.73115 -8.45386,26.2774 -2.78171,6.04083 -12.37064,8.57927 -16.56478,4.38512 z m 147.22338,26.76952 c 2.11907,-1.09581 4.78927,-3.32932 5.93379,-4.96333 2.85561,-4.07696 2.63674,-12.06247 -0.43458,-15.85537 -2.25261,-2.78186 -3.9361,-3.18048 -16.10916,-3.81438 -11.41977,-0.59466 -13.89605,-1.12177 -15.4845,-3.29604 -2.48274,-3.39838 -2.35331,-5.59733 0.72913,-12.38772 3.22427,-7.10278 14.25651,-19.0241 17.60532,-19.0241 13.14572,0 20.52709,-16.35278 10.82587,-23.98375 C 821.35534,432.30017 818.99058,432 803.24878,432 c -18.86296,0 -21.91543,-0.95027 -21.91543,-6.82251 0,-4.31534 -5.91785,-9.17749 -11.17016,-9.17749 -7.66878,0 -11.19146,4.98971 -19.85634,28.12545 -4.49453,12.0007 -7.68214,22.64528 -7.66666,25.60182 0.0359,6.84521 4.74297,11.60606 11.47512,11.60606 6.02432,0 12.38278,-6.07574 15.15765,-14.48369 2.02267,-6.12873 4.50076,-8.89223 6.73542,-7.51115 0.95992,0.59327 0.36196,2.34172 -1.74922,5.11479 -12.17227,15.98847 -13.44704,34.5032 -3.22912,46.89932 2.2529,2.73313 5.94276,5.77343 8.19974,6.75619 6.01674,2.6199 36.97076,2.54549 42.08885,-0.1012 z m 67.86833,0.044 c 20.99942,-7.40902 35.11858,-38.78066 28.22711,-62.71832 -2.64459,-9.18602 -14.15208,-20.77384 -23.09743,-23.25868 -9.30394,-2.58444 -23.22885,-1.24596 -32.07765,3.08336 -8.5868,4.20114 -19.31651,15.12796 -24.07385,24.51615 -11.66139,23.01263 -4.49306,51.53713 14.6679,58.36703 7.03331,2.50701 29.2598,2.51341 36.35392,0.0107 z m -20.84188,-25.61186 c -12.91058,-2.68792 -6.34538,-28.93254 8.45988,-33.81872 4.89943,-1.61695 11.51067,0.80366 13.03348,4.77204 2.85272,7.43406 -1.39501,22.50765 -7.46306,26.4836 -3.62682,2.37637 -9.64574,3.47592 -14.0303,2.56308 z m 175.23652,24.95994 c 5.2547,-3.20402 7.3518,-6.9641 7.3518,-13.18198 0,-7.33694 -4.8914,-10.88438 -15.0077,-10.88438 -4.9204,0 -7.9257,-0.56141 -7.9257,-1.48057 0,-0.81432 3.6,-10.99664 8,-22.62737 4.4,-11.63075 8,-23.01064 8,-25.28867 C 1044,437.55476 1037.744,432 1030.5563,432 c -9.5494,0 -13.1502,5.28507 -25.4359,37.33333 -12.00785,31.32354 -13.08547,36.16638 -9.36442,42.08382 4.34722,6.91316 9.52782,8.51888 27.57742,8.5475 13.5251,0.0215 16.6571,-0.37529 20.2482,-2.56496 z m 5.9086,-91.90949 c 4.5555,-4.55552 5.1765,-5.93385 5.1765,-11.4902 0,-5.55635 -0.621,-6.93468 -5.1765,-11.4902 -4.131,-4.13104 -6.164,-5.17647 -10.0662,-5.17647 -9.989,0 -16.7573,6.73168 -16.7573,16.66667 0,9.96032 6.501,16.50988 16.4902,16.61328 4.2489,0.044 6.0683,-0.85805 10.3333,-5.12308 z"
         style="fill:#76d6fe;stroke-width:1.33333" />
      <path
         id="path42"
         d="M 799.33335,762.50316 C 621.30269,753.87009 458.03018,706.99663 359.47413,636.22513 282.66798,581.07191 250.99404,513.01965 271.58277,447.38832 293.49031,377.55288 372.89835,314.33801 495.2876,269.30217 611.86853,226.40363 772.21671,204.80181 920.66668,211.99587 1071.526,219.30669 1201.9725,249.74091 1304,301.43064 c 133.3462,67.55655 185.3654,160.37496 139.7998,249.44636 -31.312,61.20857 -105.01,114.47275 -213.754,154.48749 -117.605,43.27535 -277.94761,64.54654 -430.71245,57.13867 z M 467.28673,569.95612 c 11.48476,-2.9914 20.30883,-8.22997 29.51588,-17.52265 12.29637,-12.41075 19.00323,-26.52886 45.1776,-95.10014 4.89861,-12.83333 9.38187,-23.82814 9.96279,-24.43293 0.5809,-0.60477 1.44716,0.98436 1.92498,3.53141 1.97259,10.51484 10.74532,15.26644 20.04147,10.85514 2.65945,-1.262 7.8824,-5.66783 11.60656,-9.79075 3.72415,-4.12291 6.46843,-6.5962 6.09839,-5.4962 -0.37004,1.1 -5.792,14.9 -12.0488,30.66667 -13.33999,33.61576 -14.31388,38.17316 -9.96586,46.63616 4.96952,9.67269 9.15007,11.28206 30.71601,11.82464 16.54252,0.41618 18.8863,0.18457 24.20937,-2.39228 6.49083,-3.14215 10.14156,-8.91055 10.14156,-16.02435 0,-9.43588 -6.21948,-13.37751 -21.10831,-13.37751 h -9.19394 L 624.35041,437 c 10.99231,-28.78333 20.24319,-54.73333 20.55755,-57.66667 0.72945,-6.80694 -3.20531,-13.42466 -9.56099,-16.08024 -11.70266,-4.88968 -18.72974,-1.18296 -39.99904,21.09915 -9.16124,9.59749 -17.01396,17.09284 -17.45047,16.65632 -0.43652,-0.43651 -2.2791,-6.64353 -4.09464,-13.79337 -4.97588,-19.5957 -8.17536,-24.27502 -17.36598,-25.39822 -6.95448,-0.8499 -12.82867,3.03692 -16.82832,11.13496 -1.73348,3.50978 -9.08074,21.90907 -16.32722,40.88732 -10.2819,26.92794 -13.36633,33.79207 -14.04472,31.25547 -3.63009,-13.57344 -17.52608,-17.59632 -40.68996,-11.77973 -32.80005,8.23629 -58.25448,32.20305 -65.88376,62.03324 -12.41855,48.55609 20.17513,86.18532 64.62387,74.60789 z M 447.2246,536.04153 c -4.26447,-1.72516 -9.65178,-8.88228 -11.3677,-15.10216 -3.15525,-11.43714 2.07366,-28.41512 11.9237,-38.71552 9.23233,-9.65445 20.1092,-14.5133 37.8656,-16.91512 6.06126,-0.81988 12.76788,-2.35234 14.90358,-3.40549 2.13571,-1.05315 4.10084,-1.69708 4.36695,-1.43097 0.87817,0.87818 -13.87276,37.49644 -20.09723,49.89009 -3.35856,6.68729 -8.06176,14.38567 -10.45154,17.10748 -7.17806,8.17536 -18.94083,11.88996 -27.14336,8.57169 z m 809.687,13.3673 c 6.3812,-2.89718 9.7551,-8.23383 9.7551,-15.43027 0,-11.84445 -3.1173,-13.16055 -33.1099,-13.97856 -21.2893,-0.58064 -24.6638,-0.9686 -26.1518,-3.00659 -0.9397,-1.28696 -6.6381,-16.74354 -12.663,-34.34798 l -10.9544,-32.00807 3.3865,-4.0246 c 1.8626,-2.21353 13.4604,-15.11235 25.7729,-28.66403 13.0837,-14.4005 24.0179,-27.7212 26.3126,-32.05556 3.7885,-7.1559 3.8586,-7.61161 2,-12.98797 -2.4987,-7.22789 -9.0172,-11.08105 -16.4022,-9.69561 -6.5375,1.22642 -11.2551,5.60177 -37.8721,35.12374 -12.0663,13.38334 -22.0955,24.33334 -22.287,24.33334 -0.1915,0 0.4637,-3.45 1.4559,-7.66667 3.9074,-16.60436 1.2742,-28.3672 -8.8233,-39.41549 -9.5595,-10.4597 -17.2139,-13.57594 -33.3309,-13.56979 -11.4905,0.004 -13.51,0.40339 -21.7495,4.29708 -30.4235,14.37727 -45.9834,51.15253 -33.4548,79.06984 8.0939,18.03568 25.9004,27.07428 39.5891,20.09543 2.7217,-1.38762 4.9486,-2.33108 4.9486,-2.0966 0,0.23448 -3.4288,9.3198 -7.6194,20.1896 -8.9402,23.18896 -9.7952,30.28806 -4.309,35.77433 7.4764,7.47641 19.8392,5.10921 26.2429,-5.02497 2.027,-3.20778 8.1298,-17.36762 13.5617,-31.4663 5.4319,-14.09869 10.286,-25.15829 10.7867,-24.57689 0.5008,0.5814 6.4959,17.25709 13.3226,37.05709 6.8266,19.8 13.7578,38.7 15.4025,42 6.5337,13.10942 10.9143,14.54096 44.612,14.57887 22.7343,0.0256 26.7006,-0.28887 31.5782,-2.50337 z M 1117.3739,448.20161 c -0.042,-3.27718 -7.0554,-10.86828 -10.0405,-10.86828 -0.9449,0 -3.5815,-1.74072 -5.859,-3.86828 -3.6842,-3.44156 -4.141,-4.69649 -4.141,-11.37616 0,-9.27106 2.2799,-14.94662 8.5049,-21.17161 8.1712,-8.17123 18.8048,-9.60749 25.0314,-3.38095 4.03,4.03002 2.765,12.70676 -4.8148,33.02576 -7.2348,19.39383 -8.6218,22.21224 -8.681,17.63952 z m -166.26116,71.15366 c 4.50441,-2.95139 47.0716,-60.61347 50.56186,-68.49178 3.327,-7.5096 2.2754,-13.54658 -3.15555,-18.11645 -4.88383,-4.10947 -10.85127,-4.42071 -16.6747,-0.86969 -2.34361,1.42908 -9.2309,9.89806 -15.79493,19.4223 -6.40159,9.28855 -11.79773,16.69599 -11.99141,16.46098 -0.1937,-0.23502 0.20273,-5.52696 0.88092,-11.7599 0.67818,-6.23292 0.87206,-13.25692 0.43084,-15.60889 -1.93306,-10.30408 -16.03271,-13.03812 -23.59438,-4.57515 -4.95027,5.54031 -5.93296,10.14355 -8.42716,39.47514 -2.2996,27.04332 -2.00949,32.48569 2.09113,39.22864 4.82739,7.938 17.34081,10.29452 25.67338,4.8348 z m -259.2451,-0.74267 c 5.61967,-2.54967 5.97767,-2.56252 8.47139,-0.30405 1.98458,1.79734 5.47993,2.471 14.69836,2.8328 19.50609,0.76556 27.29501,-3.2695 28.59629,-14.81435 0.54596,-4.84373 0.0993,-6.48867 -2.61996,-9.65007 -2.79173,-3.24558 -4.49487,-3.89902 -11.47923,-4.40422 -4.51062,-0.32627 -8.20114,-1.03335 -8.20114,-1.5713 0,-0.53793 3.6,-10.40424 8,-21.92509 4.4,-11.52087 8,-22.38039 8,-24.13227 0,-11.5217 -12.08396,-17.57422 -22.45884,-11.24901 l -4.45883,2.71841 -6.80296,-3.39006 c -26.97323,-13.44132 -60.89707,16.41358 -61.2952,53.94328 -0.16615,15.66114 5.82639,26.98234 17.01583,32.14661 7.58912,3.5026 24.60328,3.39765 32.53429,-0.20068 z m -17.20096,-27.91904 c -2.77349,-1.75505 -2.42639,-12.77168 0.58899,-18.69356 3.40288,-6.68293 9.87664,-13.07729 14.20132,-14.02716 4.2156,-0.92589 9.20969,1.21303 9.20969,3.94443 0,4.08378 -9.29091,25.49049 -12.02383,27.70346 -3.19117,2.58407 -8.79476,3.08603 -11.97617,1.07283 z m 144.9132,29.21763 c 5.61428,-2.1272 9.6118,-6.4668 10.54647,-11.449 2.15499,-11.4871 -3.83975,-16.44954 -19.88065,-16.4572 -5.73155,-0.003 -11.58155,-0.6261 -13,-1.38523 -5.30432,-2.83879 -1.59626,-13.95953 8.1973,-24.58429 3.88499,-4.21471 6.62107,-5.9181 10.50312,-6.53887 8.36899,-1.33825 12.35352,-5.69439 13.0533,-14.27068 0.53026,-6.49883 0.23092,-7.56133 -2.97499,-10.55925 -3.38301,-3.16355 -4.55693,-3.3673 -23.04683,-4 L 783.49536,430 782.3537,425.33333 c -3.19711,-13.06848 -18.56858,-14.08328 -24.82919,-1.63918 -4.93542,9.81001 -16.19116,41.53213 -16.19116,45.63162 0,5.58672 1.9404,8.89686 6.63997,11.3271 5.3584,2.77093 9.68707,2.52248 13.9088,-0.79835 l 3.57505,-2.81213 -1.0619,3.81213 c -0.58406,2.09668 -1.02204,7.41215 -0.9733,11.81215 0.13734,12.39766 6.14787,22.01545 16.58757,26.54269 5.57122,2.41599 33.7281,2.91539 39.57034,0.70183 z m -48.88354,-53.98968 c -0.0404,-1.92699 3.58656,-6.74974 4.43681,-5.8995 0.37647,0.37648 -0.46113,2.17554 -1.86135,3.99791 -1.4002,1.82237 -2.55916,2.67809 -2.57546,1.90159 z m 123.76313,50.72925 c 9.07889,-4.94136 14.101,-10.76019 20.06501,-23.24817 4.5783,-9.58646 4.80887,-10.74052 4.80887,-24.06926 0,-15.5535 -1.88797,-21.01618 -10.10256,-29.23077 -7.71701,-7.71701 -13.91617,-10.06943 -26.56411,-10.08037 -14.94089,-0.0133 -24.65266,4.22738 -35.33684,15.42862 -10.7092,11.22748 -14.41932,20.07272 -15.08544,35.96495 -0.63281,15.09733 1.98978,23.01679 10.31395,31.14512 7.17903,7.01013 13.94036,8.84139 30.80931,8.34447 12.51136,-0.36856 14.80017,-0.83026 21.09181,-4.25459 z m -26.45945,-25.57607 c -5.50714,-1.9682 -7.10798,-11.59857 -3.27182,-19.68266 4.99771,-10.53188 16.21126,-15.78592 21.78839,-10.20879 6.11284,6.11284 1.90389,24.83027 -6.5448,29.10513 -3.39525,1.71794 -8.43827,2.04916 -11.97177,0.78632 z m 173.81898,28.42022 c 6.4467,-2.6936 10.181,-8.11323 10.181,-14.77563 0,-8.10369 -4.2463,-11.70739 -14.6849,-12.46244 -4.39,-0.31755 -7.9817,-1.01928 -7.9817,-1.55943 0,-0.54014 3.4148,-9.91802 7.5884,-20.83974 8.6021,-22.51015 9.5009,-29.10702 4.6667,-34.25275 l -3.0782,-3.27659 3.5504,-0.89109 C 1050.2172,429.39011 1056,422.06388 1056,413.77769 1056,404.9354 1047.0976,396 1038.2879,396 c -9.1065,0 -16.9446,8.32624 -16.9446,18 0,5.60367 3.9172,13.54409 7.3271,14.8526 1.3686,0.52516 0.2474,1.65431 -3.5962,3.62189 -3.0716,1.57236 -6.6712,4.35884 -7.9991,6.19218 -4.4283,6.11373 -24.06705,58.93282 -24.12869,64.89488 -0.13094,12.66321 8.41009,17.69833 30.09639,17.7425 9.2635,0.0188 15.941,-0.62453 18.7762,-1.80914 z"
         style="fill:#67d2fe;stroke-width:1.33333" />
    </g>
  </g>
</svg>
